<svg width="108" height="109" viewBox="0 0 108 109" fill="none" xmlns="http://www.w3.org/2000/svg">
<path fill-rule="evenodd" clip-rule="evenodd" d="M29.342 3C27.189 5.416 25.867 6 22.545 6C16.45 6 7.038 8.73399 3.289 11.593C0.549001 13.683 0 14.761 0 18.051C0 21.286 0.681 22.678 3.763 25.75C5.833 27.813 10.285 30.963 13.657 32.752C17.029 34.541 20.019 36.608 20.302 37.345C20.585 38.083 23.782 40.22 27.405 42.093C32.349 44.65 33.994 46.025 33.996 47.603C34 49.975 47.753 65.173 55.284 71.129C57.915 73.209 60.701 74.668 61.476 74.371C62.437 74.002 63.892 75.824 66.05 80.099C67.791 83.548 70.404 87.576 71.857 89.052C73.311 90.528 75.388 93.482 76.474 95.618C79.616 101.799 82.738 105.544 86.386 107.509C93.856 111.532 100.169 104.496 102.204 89.88C103.159 83.017 103.818 81.124 105.84 79.421C108.111 77.509 108.264 76.849 107.751 71.188C107.36 66.875 106.001 62.576 103.207 56.814C99.468 49.102 99.316 48.448 100.755 46.251C102.01 44.335 102.083 43.235 101.155 40.205C98.647 32.014 84.074 16.055 73.5 9.92001C68.111 6.79301 65.452 6.381 61.699 8.091C59.704 9 58.319 8.68501 53.402 6.20401C46.899 2.92101 37.915 0 34.326 0C33.019 0 30.854 1.303 29.342 3ZM48.813 7.983C52.766 9.805 56 11.51 56 11.771C56 12.032 53.37 15.057 50.155 18.493C46.64 22.251 42.555 28.178 39.905 33.366C37.482 38.11 35.275 41.982 35 41.972C34.725 41.962 32.25 40.717 29.5 39.206L24.5 36.459L24.582 27.933C24.657 20.217 25.022 18.664 28.427 11.585L32.189 3.76401L36.907 4.21701C39.502 4.46601 44.86 6.161 48.813 7.983ZM24.449 10.75C22.849 14.409 20.113 25.636 20.058 28.767L20 32.034L15.033 29.517C9.75802 26.844 3 20.763 3 18.689C3 14.12 12.063 9.75999 22.857 9.13599C24.747 9.02699 25.062 9.347 24.449 10.75ZM71.847 13.085C82.044 18.933 98.042 36.91 97.975 42.446C97.905 48.227 84.405 60.525 71.5 66.563C59.756 72.058 61.349 72.504 48.988 60.253C42.28 53.606 38 48.583 38 47.359C38 43.374 46.662 27.531 52.095 21.58C57.022 16.183 64.416 9.986 65.9 10.009C66.23 10.015 68.906 11.398 71.847 13.085ZM100.895 60.074C102.635 63.965 104.321 69.061 104.641 71.398C105.217 75.599 105.167 75.684 100.331 78.788C94.672 82.419 83.813 85.233 77.129 84.8C72.706 84.513 72.379 84.277 69.773 79.5C68.274 76.75 67.048 74.05 67.05 73.5C67.052 72.95 70.01 71.179 73.623 69.565C80.585 66.453 92.228 58.209 94.264 54.949C96.299 51.69 97.594 52.692 100.895 60.074ZM99 86.951C99 92.072 96.928 99.822 94.853 102.459C92.357 105.633 89.582 105.681 85.569 102.62C82.105 99.978 76.529 90.571 77.498 89.003C77.839 88.451 80.004 87.98 82.309 87.956C84.614 87.932 88.75 87.092 91.5 86.09C98.531 83.527 99 83.581 99 86.951Z" fill="darkred"/>
</svg>
