<svg width="69" height="87" viewBox="0 0 69 87" fill="none" xmlns="http://www.w3.org/2000/svg">
<path fill-rule="evenodd" clip-rule="evenodd" d="M33.6139 0.011307C32.4028 0.0853636 30.718 0.451055 29.6621 0.869122C28.0822 1.49464 27.6061 2.2688 28.2601 3.14839C28.4542 3.40931 28.7012 3.6133 29.3721 4.06675C30.3197 4.70716 30.6906 5.0548 30.9992 5.59185C31.545 6.54161 31.6728 7.50592 31.3752 8.43051C31.2984 8.66912 31.0623 9.14174 30.8982 9.38522C30.2896 10.2882 29.2465 11.0309 27.7648 11.6164C27.6319 11.6689 27.2566 11.8067 26.9309 11.9225C26.2086 12.1793 25.8883 12.3085 25.5412 12.4832C24.804 12.8542 24.2595 13.2451 23.67 13.8267C22.6406 14.8425 22.0602 15.8338 21.7565 17.0954C21.7149 17.2682 21.6782 17.4126 21.675 17.4161C21.6717 17.4197 21.5777 17.3745 21.4661 17.3157C20.8666 17 20.1674 16.8604 19.2267 16.8686C18.5031 16.8749 18.0171 16.9324 17.3868 17.0864C15.9667 17.4334 14.9369 18.1397 13.8145 19.5364C13.3016 20.1746 12.8447 20.9493 12.4919 21.7787C12.2643 22.3138 12.06 23.0382 11.9279 23.7784C11.8646 24.1327 11.8611 24.1912 11.8624 24.854C11.8637 25.4886 11.87 25.595 11.9287 25.9779C11.9643 26.2105 12.0309 26.5421 12.0767 26.7147C12.1224 26.8873 12.1559 27.0325 12.151 27.0373C12.1462 27.0422 12.0451 27.0233 11.9265 26.9955C11.4181 26.8762 10.9708 26.8799 10.3504 27.0087C9.72435 27.1387 9.02378 27.4312 8.49954 27.7815C7.46794 28.4708 6.67507 29.5942 6.31813 30.8723C5.91009 32.3333 6.04658 33.7877 6.72732 35.2325C6.79244 35.3707 6.84573 35.4865 6.84573 35.4899C6.84573 35.4933 6.75058 35.475 6.63425 35.4493C6.2403 35.3623 5.77455 35.3031 5.46805 35.301L5.16592 35.299L4.87588 35.4149C3.83387 35.8311 2.8468 36.4855 2.36697 37.0782C1.80336 37.7744 1.4178 38.618 1.31147 39.3875C1.1345 40.6684 1.19932 41.8395 1.51648 43.0911C1.7837 44.1456 2.46044 45.3162 3.30022 46.1764L3.4698 46.3501L3.1313 46.7007C2.53856 47.3146 2.21485 47.7397 1.99026 48.1994C1.74588 48.6997 1.66186 49.0605 1.66324 49.604C1.66438 50.0554 1.70677 50.314 1.83357 50.6429C2.01255 51.1072 2.21647 51.4326 2.89405 52.3352C3.48433 53.1214 4.24319 54.2327 4.40431 54.5467L4.43529 54.6071L4.36655 54.5467C3.95342 54.1836 3.45888 53.7215 2.87019 53.1483C2.17545 52.4719 1.66397 52.0025 1.33499 51.7394C1.08619 51.5404 0.640202 51.2354 0.598025 51.2354C0.583668 51.2354 0.551909 51.336 0.527449 51.459C0.459314 51.8018 0.239851 52.6602 0.114361 53.075C0.0524619 53.2796 0.00100519 53.4633 1.42213e-05 53.4832C-0.000976746 53.5032 0.049948 53.606 0.113176 53.7117C0.293919 54.0139 0.92954 55.1717 1.33456 55.9365C1.40496 56.0694 1.50304 56.2543 1.5525 56.3474C2.28132 57.7183 3.21215 59.5593 3.74111 60.6759C4.10119 61.436 4.28135 61.8089 4.79117 62.8491C5.71033 64.7244 6.38435 66.1568 6.70767 66.9217C7.37725 68.5059 7.79327 69.7164 8.12391 71.0427C8.47442 72.4486 8.55542 73.0355 8.71931 75.357C8.86907 77.4781 8.97179 78.3041 9.20617 79.2726C9.64023 81.0661 10.4371 82.2688 11.6873 83.0173C12.2959 83.3817 13.9358 83.9773 15.5107 84.406C16.7845 84.7527 18.3079 85.0777 19.9337 85.3496C20.7388 85.4842 22.3464 85.7229 23.2016 85.8347C23.3584 85.8553 23.7641 85.9096 24.1031 85.9555C25.4954 86.1441 26.2337 86.2358 27.0155 86.3173C27.5137 86.3692 27.7785 86.3925 28.8041 86.4748C28.9636 86.4876 29.2192 86.5043 29.3721 86.5119C29.525 86.5195 29.8241 86.5361 30.0368 86.5487C32.6588 86.7046 37.682 86.5988 41.0099 86.3176C43.2824 86.1256 45.3222 85.8066 47.5721 85.2914C47.7515 85.2503 47.9745 85.2004 48.0675 85.1806C48.3444 85.1215 50.1628 84.6686 50.5933 84.5515C51.6228 84.2714 52.637 83.9531 53.397 83.6716C54.586 83.2311 55.7292 82.6662 56.5842 82.0965C57.8675 81.2415 58.6975 80.0513 59.0864 78.5082C59.2347 77.9195 59.3278 77.0645 59.3914 75.7075C59.473 73.9633 59.4981 73.65 59.6108 72.9642C59.8687 71.395 60.2294 70.0233 60.7453 68.6499C61.143 67.5911 61.5109 66.7728 62.2669 65.2661C63.2419 63.3226 63.4873 62.789 64.0567 61.3747C64.2012 61.0158 64.3753 60.5862 64.4436 60.42C64.5118 60.2538 64.7994 59.5414 65.0825 58.8369C65.9853 56.5908 66.2153 56.0815 66.6868 55.2839C66.9751 54.7963 67.4568 54.101 68.2424 53.0388C68.3592 52.8808 68.4549 52.7405 68.4549 52.7269C68.4549 52.7134 68.3728 52.4986 68.2726 52.2496C68.0568 51.7137 67.8641 51.146 67.756 50.7279C67.6659 50.3788 67.6363 50.3085 67.5747 50.2967C67.5429 50.2905 67.3213 50.4979 66.8001 51.0216C65.9107 51.9153 65.2386 52.6522 64.3234 53.737C64.1327 53.963 63.9666 54.1588 63.9542 54.1721C63.9162 54.2129 63.9591 54.0713 64.0972 53.7008C64.3877 52.9207 64.8183 52.1423 65.4578 51.2407C66.1742 50.2308 66.5236 49.5597 66.7063 48.8426C66.8922 48.1127 66.7443 47.3823 66.2657 46.6676C66.1255 46.4584 65.8813 46.1478 65.8108 46.0894C65.7761 46.0605 65.7978 46.0299 66.0075 45.8118C67.1892 44.5833 67.8535 43.2905 68.0209 41.8938C68.0625 41.5467 68.0567 40.9043 68.0094 40.6128C67.8974 39.9224 67.5978 39.1389 67.2311 38.5769C66.839 37.976 66.132 37.3736 65.3716 36.9927C64.7868 36.6997 64.5867 36.6446 63.9109 36.5906C63.4612 36.5548 62.6952 36.5405 62.2371 36.5596C62.0144 36.5688 61.8323 36.5746 61.8323 36.5724C61.8323 36.5702 61.8648 36.4832 61.9046 36.379C62.1034 35.8581 62.267 35.1876 62.3305 34.6334C62.3797 34.2047 62.3799 33.5322 62.3311 33.2134C62.1995 32.354 61.7947 31.2736 61.2818 30.4131C60.8215 29.6409 59.5897 28.7417 58.5977 28.4537C58.149 28.3235 57.422 28.2273 56.8473 28.222C56.6512 28.2202 56.4908 28.2157 56.4908 28.212C56.4908 28.2083 56.523 28.0711 56.5625 27.9073C56.7365 27.1842 56.794 26.6137 56.7737 25.8122C56.753 24.998 56.6515 24.4079 56.403 23.6576C56.1761 22.9723 55.756 22.195 55.3131 21.6408C55.0804 21.3496 54.5363 20.8241 54.243 20.6071C53.7096 20.2125 53.3759 20.0251 53.0292 19.9255C52.1897 19.6842 51.3523 19.8539 50.3067 20.4773C50.1823 20.5515 50.0773 20.6122 50.0735 20.6122C50.0696 20.6122 50.0867 20.5332 50.1114 20.4367C50.2584 19.8628 50.3143 19.195 50.2957 18.2329C50.2777 17.3028 50.2105 16.7536 50.0219 15.9957C49.6698 14.5805 49.1328 13.7898 48.2112 13.3296C47.7658 13.1072 46.7682 12.7442 46.1702 12.587C45.9427 12.5272 45.9089 12.5084 45.9452 12.4619C45.9586 12.4447 46.0158 12.3219 46.0723 12.1889C46.3889 11.4435 46.4799 11.0414 46.5017 10.2912C46.5414 8.92194 46.0796 7.5421 45.07 6.01352C44.5421 5.21417 43.8223 4.3275 43.1569 3.65695C41.0191 1.50242 38.2423 0.233768 35.1971 0.0202505C34.8808 -0.00191334 33.9191 -0.00735219 33.6139 0.011307ZM35.9101 2.89683C36.6217 2.95798 37.1997 3.08635 37.9075 3.3405C39.3872 3.87175 40.3511 4.52016 41.2862 5.61319C42.1076 6.57327 42.7743 7.70544 43.1446 8.76889C43.6179 10.1284 43.622 11.2991 43.1569 12.2983C43.1044 12.4109 43.0253 12.5956 42.981 12.7086C42.5993 13.6825 41.7736 14.5511 40.5937 15.2196C39.8494 15.6414 38.7817 16.0618 37.828 16.3086C37.1719 16.4784 36.97 16.5174 35.8134 16.6973C35.2655 16.7825 34.9688 16.8923 34.7466 17.0921C34.1512 17.6275 34.5935 18.8545 35.4853 19.1412C35.8223 19.2496 36.462 19.2199 37.081 19.0671C37.9246 18.859 38.9885 18.3451 40.2435 17.5396C41.1139 16.981 42.5336 15.9673 42.8856 15.6532C43.329 15.2574 43.4648 15.168 43.7607 15.0772C43.9795 15.0101 44.1932 14.9809 44.4662 14.9809C44.9086 14.9809 45.2293 15.0579 45.6747 15.271C46.3386 15.5886 46.9147 16.1585 47.2537 16.8329C47.3648 17.0538 47.5097 17.4943 47.5747 17.8084C47.624 18.047 47.632 18.1532 47.6312 18.5577C47.6305 18.9544 47.6217 19.0692 47.5756 19.2828C47.3215 20.4599 46.7009 21.2686 45.3726 22.153C44.297 22.8692 43.0328 23.3853 41.312 23.8106C39.2354 24.3239 37.4163 24.6041 35.4059 24.7203C34.1339 24.7938 33.0999 24.712 32.1516 24.463C30.2254 23.9572 28.6809 23.1358 27.5019 21.9902C26.9265 21.431 26.5563 20.9306 26.2411 20.2859C25.5831 18.94 25.5687 17.6281 26.1989 16.432C26.5068 15.8475 26.9871 15.2834 27.5473 14.8483C28.1557 14.3757 28.7423 14.0547 30.1053 13.4483C31.014 13.0441 31.3737 12.8279 31.8156 12.4204C32.6264 11.6727 33.5203 9.993 33.8682 8.56345C34.0274 7.90922 34.049 7.72557 34.0486 7.02866C34.0483 6.4539 34.0426 6.3621 33.9934 6.13437C33.8271 5.36594 33.515 4.78465 32.948 4.18739C32.5955 3.81609 32.5147 3.6875 32.5144 3.49738C32.5141 3.33876 32.5682 3.24198 32.7227 3.1241C32.8526 3.02503 33.1754 2.92202 33.4326 2.89756C33.7372 2.86858 35.575 2.86807 35.9101 2.89683ZM19.8647 20.8806C20.1066 20.9549 20.2671 21.0261 20.538 21.1795C20.9659 21.4219 21.3059 21.6746 22.2314 22.4382C22.745 22.8621 23.209 23.2096 23.6813 23.5243C23.882 23.658 24.1546 23.8659 24.287 23.9862C25.6571 25.2311 27.4505 26.2244 29.4325 26.8361C31.8758 27.5903 34.2259 27.7779 36.8285 27.4267C37.9494 27.2754 39.0447 27.0319 41.022 26.4943C43.8264 25.7318 45.1586 25.2733 46.3461 24.662C46.5868 24.538 46.7258 24.4847 46.9835 24.4175C47.5579 24.2677 48.3999 23.9465 49.5298 23.4462C50.6677 22.9424 51.1881 22.7945 51.7414 22.8176C52.046 22.8303 52.1753 22.871 52.4212 23.0311C52.7283 23.2312 52.9699 23.5527 53.1554 24.0081C53.3961 24.599 53.5254 25.1553 53.5684 25.7858C53.6882 27.5409 53.0127 29.0335 51.7051 29.9033C51.2148 30.2294 50.5955 30.4762 50.0208 30.5744C49.5684 30.6518 48.8979 30.6464 48.2246 30.5602C46.9377 30.3954 46.4527 30.348 46.1944 30.3619C45.7125 30.3878 44.9843 30.504 44.4239 30.6446C43.8299 30.7937 42.9195 31.1184 42.4916 31.3339C42.2918 31.4345 41.5935 31.7245 41.1308 31.899C39.8705 32.3742 37.8727 32.9641 36.7077 33.2051C35.3096 33.4944 33.9255 33.6435 32.5867 33.6491C32.0011 33.6516 31.9284 33.6473 31.7383 33.5987C30.954 33.3985 30.1596 33.0509 29.4397 32.5928C28.7636 32.1625 27.8368 31.4596 27.366 31.02C26.4803 30.193 25.4536 29.644 24.381 29.4242C23.4083 29.2248 22.314 29.1998 20.7193 29.3403C20.3146 29.376 19.4383 29.3754 19.1241 29.3393C17.9012 29.1988 17.0963 28.7007 16.5258 27.7313C16.1547 27.1008 16.0393 26.6999 15.9686 25.7966C15.8752 24.6032 16.0658 23.3681 16.4408 22.737C16.9157 21.9376 18.0499 21.1148 19.0032 20.8782C19.265 20.8132 19.6489 20.8143 19.8647 20.8806ZM11.8489 29.9615C12.3452 30.0884 12.8889 30.318 13.71 30.7477C14.1749 30.9909 14.2237 31.0123 14.6284 31.15C15.146 31.326 15.921 31.5119 16.2962 31.55C16.3826 31.5587 16.5131 31.5804 16.5862 31.5982C16.9968 31.698 17.4806 31.759 17.9646 31.7719C18.6884 31.7914 19.2044 31.7421 20.5259 31.5274C21.3559 31.3926 21.6173 31.3645 22.1721 31.3506C23.0767 31.3278 23.5965 31.4236 24.3153 31.7454C25.1615 32.1242 25.7333 32.5208 26.8222 33.484C28.332 34.8196 28.5527 34.9965 28.9664 35.2024C29.7022 35.5687 30.4344 35.8042 31.2815 35.9472C31.6869 36.0156 31.9299 36.0429 32.5988 36.0953C33.3092 36.151 35.0986 36.1316 35.8376 36.0603C37.5483 35.8952 38.7256 35.6308 40.7199 34.9642C41.5275 34.6942 41.9247 34.4999 43.62 33.5451C44.1451 33.2494 44.8244 32.9781 45.3847 32.8403C45.8528 32.7252 46.2049 32.689 46.8711 32.6877L47.4633 32.6865L48.0775 32.813C49.0375 33.0105 49.4802 33.0646 50.1462 33.0657C50.7583 33.0667 51.0609 33.0362 51.6568 32.9137C52.3787 32.7653 52.9843 32.5179 53.6387 32.1042C54.6318 31.4763 55.2936 31.2371 56.0315 31.2393C56.5448 31.2408 56.9813 31.3509 57.5287 31.6169C58.1495 31.9186 58.7019 32.5602 58.9309 33.2457C59.1186 33.8073 59.1191 34.3237 58.9326 34.8946C58.7724 35.3847 58.4923 35.8233 58.0745 36.238C57.5419 36.7667 57.0183 37.0325 56.237 37.1709C56.0077 37.2116 55.8153 37.2246 55.3185 37.2333L54.6901 37.2442L54.388 37.3414C53.9059 37.4965 53.4855 37.6773 52.684 38.0741C52.2719 38.2781 51.864 38.4672 51.7776 38.4942C51.2081 38.6723 50.4794 38.8071 49.5419 38.9077C47.8587 39.0883 46.6927 39.0261 44.9738 38.6641C42.5712 38.158 41.6639 38.0335 40.3815 38.0339C38.7762 38.0344 37.6157 38.254 35.052 39.0427C33.5129 39.5162 32.2155 39.844 31.2332 40.0075C30.0306 40.2076 28.517 40.3117 27.4954 40.2645C25.4461 40.1699 24.1076 39.874 22.7373 39.2129C22.1464 38.9278 21.9923 38.8366 20.26 37.748C20.0008 37.5851 19.631 37.3594 19.4383 37.2465C18.4675 36.6775 17.2888 36.3175 16.0983 36.2263C15.6033 36.1884 14.8201 36.2319 13.6617 36.3616C12.6234 36.4779 12.2225 36.5017 11.9093 36.4657C11.4845 36.4169 11.0298 36.2382 10.7111 35.9949C9.74402 35.2568 9.16605 34.0619 9.16605 32.8006C9.16605 32.5265 9.22415 32.0342 9.2838 31.8028C9.50629 30.9399 10.1594 30.1031 10.7666 29.903C10.9451 29.8441 11.5092 29.8747 11.8489 29.9615ZM7.44998 38.4984C7.98858 38.5856 8.60173 38.7294 9.28689 38.9294C10.0236 39.1444 10.1315 39.1737 10.3741 39.2249C10.5774 39.2678 10.6461 39.2733 10.7216 39.2532C10.7955 39.2335 10.8634 39.2379 11.0363 39.2736C11.3389 39.3362 11.8571 39.3558 12.2961 39.3212C12.6296 39.2949 12.8731 39.2578 14.0363 39.056C15.3855 38.8219 16.5142 38.9528 17.5754 39.4667C18.1768 39.7579 18.6538 40.061 20.2721 41.1806C21.714 42.178 22.7532 42.5894 24.7556 42.9552C26.0585 43.1933 26.5976 43.2343 27.8252 43.1889C29.4185 43.13 30.234 43.0448 31.3419 42.8213C32.3296 42.6222 33.1545 42.3914 34.7016 41.8817C38.23 40.7191 39.6771 40.5177 41.7108 40.9062C42.2347 41.0062 42.8258 41.1631 43.7774 41.4546C45.5648 42.0021 46.2838 42.1793 47.1007 42.2734C47.4498 42.3136 48.5461 42.3131 48.8893 42.2727C49.8395 42.1605 50.7614 41.9736 51.179 41.8083C51.7448 41.5843 52.5216 41.0892 53.0686 40.6038C53.2875 40.4096 53.6866 40.1867 54.0617 40.0494C54.6424 39.8367 55.3458 39.7839 55.9228 39.9097C56.0158 39.9299 56.2452 39.9585 56.4326 39.9732C57.2817 40.0395 58.261 39.8359 59.0977 39.419C59.1727 39.3816 59.3047 39.3376 59.3911 39.3212C59.4776 39.3047 59.7984 39.2319 60.1042 39.1593C61.0576 38.933 61.555 38.8325 62.1344 38.7494C62.7377 38.6629 63.4929 38.7989 64.1261 39.1083C64.4972 39.2896 64.8975 39.5828 65.1205 39.8368C65.3079 40.0503 65.5545 41.1173 65.5545 41.7151C65.5545 42.1571 65.418 42.7013 65.2008 43.1257C65.0412 43.4376 64.9301 43.589 64.7318 43.7654C63.9974 44.4185 63.2853 44.8145 62.3034 45.1159C61.446 45.3791 60.7297 45.4569 58.799 45.4964C57.6167 45.5206 57.2984 45.4842 55.4031 45.1088C54.0426 44.8393 53.6901 44.7787 52.7928 44.6602C52.4338 44.6127 52.3204 44.6087 51.6568 44.6198C50.7466 44.635 50.1756 44.6853 49.8234 44.7812C48.8409 45.0487 47.5027 45.5341 46.5207 45.9793C45.4041 46.4854 44.3011 46.9033 43.7828 47.0165C43.537 47.0702 42.8981 47.1667 42.581 47.198C42.0365 47.2518 41.49 47.2712 40.4903 47.2722C39.9253 47.2728 39.2346 47.2831 38.9555 47.295C38.6763 47.3069 38.1542 47.3293 37.7953 47.3447C36.8648 47.3846 36.4194 47.3561 35.9463 47.2265C35.5361 47.114 35.2881 47.0322 34.7233 46.823C33.9882 46.5509 33.5386 46.4661 32.8284 46.4658C31.8425 46.4654 31.1694 46.6151 29.0873 47.2975C28.0733 47.6298 27.6252 47.7615 27.085 47.8859L26.816 47.9478L26.3445 47.9122C25.7517 47.8675 25.4966 47.8395 25.0032 47.7653C24.3205 47.6625 23.9228 47.5699 23.668 47.4543C22.3567 46.8595 21.5242 46.421 20.6588 45.8693C20.2454 45.6057 19.7502 45.376 19.3382 45.2566C18.9248 45.1368 18.7882 45.1169 18.2877 45.1034C17.5424 45.0834 17.1614 45.1402 16.3943 45.3857C15.6019 45.6393 15.2384 45.7425 14.3138 45.9763C12.4488 46.4481 12.0545 46.5112 10.9909 46.5086C10.2633 46.5068 9.91137 46.4683 9.36622 46.3307C8.09551 46.0099 7.03141 45.3585 6.15288 44.3638C5.5225 43.65 5.04512 42.875 4.82899 42.2144C4.67165 41.7335 4.63455 41.4939 4.63525 40.9632C4.63578 40.5631 4.64395 40.4572 4.68946 40.2623C4.80103 39.7843 5.0326 39.328 5.30565 39.048C5.56792 38.7792 5.98011 38.5826 6.4586 38.4983C6.79502 38.439 7.08262 38.439 7.44998 38.4984ZM51.5423 47.4042C52.375 47.4777 53.1608 47.6171 53.8562 47.8147C55.5081 48.2839 56.0775 48.4253 56.8291 48.5524C57.5406 48.6727 58.0937 48.7267 58.654 48.7304C59.1004 48.7334 59.2154 48.7256 59.6087 48.6655C60.5614 48.5199 61.5211 48.336 62.0771 48.1927C62.355 48.1211 62.9731 47.8684 63.4191 47.644L63.8165 47.4441L63.9572 47.5818C64.0653 47.6876 64.1265 47.7783 64.2212 47.9729C64.373 48.2849 64.4177 48.4691 64.4181 48.7855C64.4187 49.1981 64.3202 49.4735 63.8028 50.5047C63.3896 51.3284 63.0093 52.2318 62.7129 53.0939C62.7065 53.1125 62.697 53.1233 62.6917 53.118C62.6864 53.1128 62.6482 52.9127 62.6066 52.6735C62.5226 52.1889 62.4309 51.7521 62.2921 51.175C62.193 50.7632 61.9466 49.8349 61.9114 49.7411C61.8917 49.6885 61.8655 49.7102 61.5169 50.0681C60.6031 51.006 59.4546 52.3371 57.4583 54.7721C56.9799 55.3557 56.7427 55.6275 56.7306 55.6059C56.7131 55.5745 56.5709 54.9284 56.3585 53.9147C55.9938 52.1745 55.8248 51.453 55.5766 50.5761C55.4882 50.2641 55.4632 50.1977 55.4433 50.2223C55.2708 50.4357 54.4702 51.5867 54.1946 52.0174C54.0949 52.1732 53.9418 52.4118 53.8544 52.5476C53.4243 53.2156 52.6395 54.559 51.9593 55.7915C51.499 56.6256 51.5092 56.6084 51.487 56.5855C51.4316 56.5284 50.9673 55.7732 50.5097 54.9961C49.818 53.8214 49.4327 53.1916 49.2895 53.0017C49.2449 52.9425 49.2879 52.8574 48.5752 54.4138C47.9892 55.6937 47.4476 56.7563 47.1754 57.1605L47.0968 57.2772L46.7747 56.6673C45.8126 54.8458 45.0974 53.561 44.6423 52.8365C44.4471 52.5259 44.0708 51.9655 44.0478 51.9513C44.0175 51.9325 43.374 52.5938 42.9314 53.0986C42.1231 54.0206 41.1759 55.2349 40.1159 56.7077L39.8045 57.1405L39.7059 56.9373C39.6517 56.8256 39.5079 56.522 39.3862 56.2628C39.2646 56.0036 39.0271 55.4978 38.8586 55.1389C38.5463 54.4741 38.1005 53.578 38.0424 53.4986C38.0125 53.4577 38.0043 53.462 37.9256 53.5596C37.6333 53.922 37.1844 54.6014 36.5864 55.586C35.9061 56.7062 35.4962 57.3504 35.4636 57.3504C35.4532 57.3504 35.4035 57.2716 35.3531 57.1752C34.8845 56.2791 34.0138 54.768 33.4687 53.905C33.0283 53.2076 32.3045 52.1581 32.2097 52.0795C32.1777 52.0529 32.1524 52.0707 32.0351 52.202C31.1361 53.2084 30.2462 54.5166 28.8411 56.8972C28.5057 57.4655 28.2242 57.9302 28.2156 57.9299C28.2069 57.9296 27.8736 57.357 27.4748 56.6576C26.4737 54.9018 25.5809 53.4107 25.5306 53.4107C25.5073 53.4107 25.2866 53.6641 25.0672 53.9425C24.5371 54.6154 24.0812 55.3418 23.2396 56.8546C22.9807 57.3201 22.7611 57.7092 22.7516 57.7194C22.7321 57.7403 22.4152 57.3125 22.1293 56.8791C21.8532 56.4607 21.6186 56.0794 20.9287 54.9282C20.303 53.8839 19.9159 53.2628 19.6365 52.8548C19.4478 52.5792 19.0412 52.0344 18.9246 51.9008L18.8408 51.8049L18.5813 52.1546C17.8598 53.1273 17.0264 54.5063 16.3212 55.894C16.2115 56.1099 16.1136 56.2815 16.1037 56.2754C16.0716 56.2556 15.5887 55.5201 15.1353 54.8005C14.3689 53.5842 13.9793 53.0316 13.6396 52.6788L13.4524 52.4846L13.3182 52.6516C12.8352 53.2525 12.3761 54.4249 11.8718 56.3457L11.8151 56.5615L11.7601 56.4907C11.7298 56.4517 11.6102 56.2894 11.4943 56.1299C10.6053 54.9062 9.26932 53.3124 7.18049 50.9834C7.13195 50.9293 7.08719 50.8904 7.08098 50.8971C7.07138 50.9074 6.86852 51.7254 6.35279 53.8337C6.26225 54.2038 6.24279 54.2598 6.22239 54.2083C6.16936 54.0748 5.9746 53.602 5.87918 53.3753C5.82339 53.2428 5.66866 52.9056 5.53526 52.626C4.70633 50.8884 4.55829 50.4599 4.53178 49.7219C4.52138 49.4327 4.52743 49.3436 4.57132 49.1386C4.63162 48.8569 4.7539 48.5314 4.86675 48.3523C4.99417 48.15 5.27333 47.7782 5.30761 47.765C5.32491 47.7584 5.47827 47.8358 5.6484 47.9371C6.40492 48.3876 7.34982 48.825 8.01582 49.033C8.8224 49.2848 10.0281 49.4472 11.086 49.4465C12.7867 49.4453 14.1121 49.2939 15.6315 48.927C15.8708 48.8692 16.208 48.7789 16.3808 48.7263C16.792 48.6011 17.133 48.5177 17.5047 48.4515C17.9162 48.3782 18.8531 48.3707 19.0995 48.4387C19.5779 48.5708 20.1188 48.8747 21.133 49.5814C22.6865 50.664 23.0381 50.8638 23.8272 51.1122C24.5522 51.3405 25.049 51.415 25.8433 51.4145C26.4829 51.4141 26.8254 51.3811 27.3395 51.2703C28.2229 51.0799 28.9045 50.8276 29.9159 50.3167C31.0423 49.7478 31.7848 49.5374 32.6713 49.536L33.1064 49.5353L33.3239 49.635C33.6729 49.7948 34.0936 50.0265 34.4961 50.2802C35.2436 50.7514 35.9097 51.0355 36.6237 51.1875C37.0807 51.2848 38.0838 51.2549 39.1851 51.1113C39.3911 51.0844 39.7174 51.0416 39.9102 51.016C40.1029 50.9905 40.5761 50.9313 40.9616 50.8845C42.0411 50.7533 42.4216 50.6812 43.149 50.4695C44.1152 50.1884 44.8722 49.8382 46.3515 48.9877C47.4726 48.3432 47.9558 48.0872 48.4447 47.8789C48.8249 47.717 49.7217 47.5046 50.4396 47.4065C50.7627 47.3624 51.0607 47.3618 51.5423 47.4042ZM9.07171 56.0332C9.68775 56.7377 10.5399 57.7112 10.9653 58.1964C11.3907 58.6816 11.8742 59.2336 12.0398 59.423C12.2055 59.6124 12.3479 59.7674 12.3563 59.7674C12.3763 59.7674 12.4178 59.6797 12.6592 59.1269C12.7694 58.8743 12.9621 58.4338 13.0873 58.148C13.2125 57.8622 13.428 57.3701 13.5662 57.0544C13.7043 56.7386 13.8246 56.4803 13.8334 56.4803C13.8485 56.4803 14.5948 57.2394 16.4779 59.17L17.2979 60.0107L17.355 59.883C17.3863 59.8128 17.4755 59.6085 17.553 59.429C17.7653 58.9378 17.913 58.5971 18.1453 58.0634C18.261 57.7976 18.4189 57.4332 18.4962 57.2538C18.5735 57.0743 18.7039 56.7752 18.786 56.5891C18.868 56.403 18.9409 56.2317 18.9479 56.2084C18.9548 56.1851 18.9685 56.1661 18.9783 56.1661C18.9953 56.1661 19.9452 57.5851 21.8541 60.4623C22.3502 61.2101 22.7634 61.8219 22.7723 61.8219C22.7859 61.8219 23.8984 59.9013 24.9554 58.0531C25.1117 57.7796 25.2483 57.5529 25.259 57.5493C25.2696 57.5458 25.685 58.1005 26.182 58.782C26.6791 59.4636 27.2484 60.2442 27.4472 60.5167C27.646 60.7892 27.8695 61.0961 27.9438 61.1987C28.0182 61.3013 28.0844 61.3851 28.0911 61.385C28.0977 61.3849 28.8101 60.52 29.6742 59.4631C30.5383 58.4063 31.4356 57.3088 31.6682 57.0244C31.9009 56.7399 32.1002 56.5061 32.1111 56.5048C32.1221 56.5034 32.393 56.9297 32.7131 57.4521C33.7454 59.1368 34.3108 60.0581 34.799 60.8513L35.0868 61.3189L35.16 61.2375C35.2003 61.1927 35.7764 60.5446 36.4402 59.7971C37.104 59.0496 37.6548 58.4381 37.6644 58.4381C37.6739 58.4381 38.126 59.2532 38.669 60.2495C39.2121 61.2458 39.6638 62.0533 39.6728 62.0441C39.6908 62.0256 40.0634 61.4363 41.5175 59.1267C41.6637 58.8944 41.9806 58.3916 42.2217 58.0093C42.4628 57.627 42.8365 57.0342 43.0522 56.6919L43.4444 56.0697L43.7341 56.5227C43.8935 56.7719 44.0489 57.0139 44.0795 57.0604C44.1101 57.1069 44.3333 57.455 44.5755 57.8338C44.8178 58.2127 45.0861 58.6314 45.1719 58.7644C45.2577 58.8973 45.5582 59.3658 45.8397 59.8055C46.1212 60.2451 46.4752 60.7979 46.6264 61.0339C46.7777 61.2698 46.9094 61.4539 46.9192 61.443C46.929 61.432 47.1524 61.1022 47.4157 60.7101C47.679 60.3179 48.081 59.7197 48.309 59.3807C48.537 59.0417 48.9338 58.4517 49.1908 58.0695C49.4478 57.6873 49.666 57.3746 49.6757 57.3746C49.6854 57.3746 50.2864 57.9728 51.0112 58.7039C51.7361 59.4351 52.3385 60.0333 52.3498 60.0333C52.3612 60.0333 52.5105 59.7587 52.6817 59.423C52.8528 59.0874 53.0607 58.6822 53.1436 58.5227C53.2266 58.3632 53.569 57.6943 53.9047 57.0362C54.2404 56.3782 54.5228 55.8312 54.5322 55.8208C54.5416 55.8103 54.5727 55.8918 54.6012 56.002C54.6296 56.1122 54.7496 56.5722 54.8677 57.0241C54.9859 57.4761 55.1888 58.2538 55.3187 58.7523C55.4486 59.2508 55.5615 59.6704 55.5696 59.6848C55.5837 59.7099 55.8137 59.4733 57.3115 57.8934C57.6765 57.5084 58.1774 56.9812 58.4247 56.722C58.6719 56.4628 59.1996 55.9081 59.5973 55.4893C59.995 55.0706 60.3262 54.7253 60.3332 54.7219C60.3403 54.7186 60.3971 54.86 60.4594 55.0361C60.5218 55.2123 60.7194 55.7697 60.8986 56.2749C61.0778 56.78 61.286 57.3682 61.3613 57.582C61.4365 57.7957 61.5064 57.9841 61.5166 58.0006C61.5353 58.0308 61.5604 58.0161 63.0842 57.0888C63.3939 56.9004 63.653 56.7462 63.6599 56.7462C63.6668 56.7462 63.6651 56.7706 63.6561 56.8006C63.6355 56.8689 63.1679 58.0389 62.9679 58.5227C62.306 60.1237 61.9719 60.9083 61.4137 62.1723C61.1688 62.727 61.0446 62.9839 60.1152 64.859C59.6748 65.7476 59.2438 66.6314 59.1575 66.8231C58.5727 68.1212 58.1732 69.3758 57.9179 70.7164C57.7468 71.6144 57.6422 72.3638 57.432 74.1969C57.2513 75.7731 57.0557 76.6728 56.7193 77.4758C56.6044 77.75 56.2362 78.3277 55.9438 78.6925C55.7904 78.8838 55.2337 79.4737 55.2196 79.4597C55.2162 79.4562 55.2292 79.3665 55.2486 79.2602C55.335 78.7861 55.4582 78.1294 55.5002 77.919C55.5255 77.7927 55.5741 77.5372 55.6084 77.351C55.6426 77.1649 55.7076 76.8114 55.7529 76.5655C56.0229 75.0988 56.0968 74.5152 56.1138 73.7135C56.1395 72.5053 56.2742 71.0789 56.4585 70.0643C56.5445 69.5911 57.2771 67.6897 57.8136 66.5475C58.2916 65.5296 58.3769 65.3412 58.4915 65.0486C58.7192 64.4675 58.8168 64.059 58.8206 63.6709C58.823 63.4211 58.8188 63.3962 58.7506 63.2602C58.6594 63.078 58.5654 63.0181 58.3747 63.0207C57.9097 63.0271 57.3046 63.6116 56.8985 64.4468C56.7183 64.8175 56.6134 65.1123 56.3546 65.9759C56.2405 66.3565 56.0886 66.8327 56.017 67.034C55.4275 68.6921 55.0535 70.471 54.9684 72.0216C54.9388 72.5621 54.8598 73.6169 54.8236 73.9552C54.8101 74.0815 54.7824 74.3642 54.7619 74.5836C54.6624 75.6488 54.5443 76.6049 54.4457 77.1423C54.2357 78.2865 54.1416 78.949 54.0861 79.6714C54.0301 80.401 54.0636 80.3224 53.7395 80.4853C53.3121 80.7001 51.7478 81.3053 51.7121 81.2696C51.6934 81.2508 51.8756 78.7686 51.9838 77.5686C52.3008 74.0533 52.71 71.4429 53.3381 68.9278C53.5493 68.0821 53.7649 67.358 53.9894 66.7404C54.7229 64.7222 55.0406 63.4915 55.0406 62.6682C55.0406 62.2508 54.971 61.9949 54.819 61.8532C54.4658 61.524 53.6439 61.8231 52.9775 62.5233C52.2755 63.261 51.8738 64.4205 51.6924 66.2329C51.6725 66.4323 51.6288 66.9272 51.5953 67.3326C51.4833 68.6887 51.4252 69.0911 51.1977 70.088C50.8032 71.816 50.5125 73.5575 50.3284 75.2966C50.2875 75.6821 50.2436 76.09 50.2309 76.203C50.1935 76.5329 50.0882 77.6963 50.0482 78.2212C49.9547 79.4485 49.9383 79.7886 49.9243 80.79C49.9161 81.3786 49.9026 81.8645 49.8942 81.8697C49.8363 81.9055 48.6015 82.2446 47.7775 82.451L47.0766 82.6267L47.0681 82.5629C47.0477 82.4085 47.1599 79.9785 47.2686 78.2212C47.2875 77.9154 47.3096 77.5293 47.3177 77.3631C47.4192 75.2795 47.6053 73.3034 47.8511 71.6971C47.9845 70.8256 48.1332 70.2777 48.5285 69.2011C48.8193 68.4092 49.1282 67.4898 49.2002 67.202C49.418 66.3319 49.3717 65.4173 49.0877 64.9731C48.8514 64.6037 48.4774 64.5684 47.9826 64.8689C47.4954 65.1648 47.0926 65.572 46.8007 66.0637C46.4996 66.5707 46.3161 67.1074 46.1848 67.8643C46.0691 68.5319 46.0223 69.0407 45.9649 70.2572C45.9059 71.5051 45.8825 71.8657 45.7951 72.8796C45.6867 74.1368 45.6439 74.6164 45.6148 74.8978C45.5165 75.8481 45.4357 77.1686 45.3967 78.4629C45.3826 78.9281 45.3607 79.5753 45.3479 79.901C45.3198 80.6184 45.3192 82.0373 45.3468 82.5838C45.3579 82.8032 45.3639 82.9861 45.3601 82.9903C45.3449 83.0072 43.8857 83.2807 43.4632 83.3459C43.4166 83.3531 43.3475 83.3651 43.3095 83.3727L43.2404 83.3864L43.2523 81.0817C43.2711 77.4376 43.3576 72.5829 43.4267 71.2965C43.5153 69.6459 43.5659 69.2857 44.0787 66.6559C44.4249 64.8804 44.5323 64.0354 44.5364 63.0545C44.5384 62.5728 44.532 62.4629 44.4946 62.3312C44.3754 61.9107 44.1607 61.7028 43.8448 61.7016C43.3028 61.6995 42.8356 62.2859 42.5837 63.2841C42.4543 63.7971 42.2402 65.3218 42.1475 66.39C42.0714 67.2669 41.9901 68.7097 41.9528 69.8463C41.9223 70.7739 41.841 72.4948 41.7954 73.1817C41.7693 73.5739 41.7369 74.1223 41.7235 74.4004C41.7101 74.6785 41.6855 75.1625 41.6689 75.4759C41.6284 76.2383 41.6286 79.7638 41.6692 80.5052C41.6855 80.8043 41.7106 81.2704 41.7248 81.541C41.7391 81.8116 41.7751 82.3772 41.8048 82.7979C41.837 83.2539 41.8499 83.5688 41.8367 83.5778C41.8127 83.5941 41.8064 83.595 41.0583 83.6825C40.1004 83.7946 39.5402 83.8435 39.5235 83.8166C39.4912 83.7643 39.3726 82.555 39.3287 81.831C39.2995 81.3487 39.3081 81.0758 39.3793 80.2273C39.5406 78.3049 39.5701 77.7932 39.5431 77.3859C39.5215 77.0607 39.445 76.1056 39.3778 75.3208C39.2206 73.4864 39.2229 73.5328 39.2221 72.1545C39.2214 71.0178 39.2282 70.7651 39.2746 70.1967C39.304 69.8378 39.3417 69.3701 39.3586 69.1574C39.4013 68.6182 39.4008 67.2208 39.3578 67.0305C39.2061 66.3594 38.8132 65.8341 38.4629 65.8341C38.1762 65.8341 37.9161 66.1638 37.7708 66.7114C37.3781 68.1913 37.2934 70.1993 37.5183 72.6983C37.5452 72.9974 37.5936 73.4978 37.6258 73.8101C37.7321 74.8423 37.7839 75.4109 37.8218 75.9613C37.8731 76.7068 37.8927 78.3811 37.8576 79.0188C37.7591 80.8098 37.7845 82.2491 37.9394 83.6548C37.9573 83.8168 37.9699 83.9516 37.9674 83.9542C37.9354 83.9887 35.6614 84.0818 34.8427 84.0821L34.2828 84.0824L34.2688 83.9917C34.2122 83.6256 34.1789 81.7183 34.2177 81.0611C34.2417 80.6543 34.3014 79.804 34.3391 79.333C34.4844 77.5184 34.5682 74.2007 34.5299 71.7799C34.5073 70.3481 34.5045 68.5547 34.522 66.7042C34.5328 65.555 34.5226 65.3563 34.423 64.787C34.2561 63.833 33.8826 63.0877 33.3605 62.6667C32.9733 62.3545 32.5847 62.3649 32.2333 62.6967C32.0516 62.8682 31.9073 63.0748 31.7784 63.3481C31.3606 64.2338 31.3723 65.3266 31.8179 67.0426C32.2995 68.8974 32.4849 70.0522 32.6113 71.9853C32.6253 72.198 32.6467 73.4814 32.659 74.8374C32.6714 76.1933 32.6876 77.4713 32.6952 77.6773C32.7027 77.8834 32.7197 78.7046 32.733 79.5022C32.7587 81.0511 32.7782 81.4907 32.8527 82.1971C32.9035 82.6793 33.0073 83.5378 33.0455 83.7923C33.0585 83.8787 33.0693 83.9804 33.0696 84.0183L33.0701 84.0872L32.774 84.073C32.6112 84.0652 32.2985 84.0528 32.0791 84.0454C31.447 84.0241 30.3192 83.9637 29.8269 83.9247C29.5785 83.9051 29.3464 83.889 29.311 83.889H29.2469L29.2622 83.46C29.2707 83.224 29.2947 82.6721 29.3156 82.2334C29.338 81.7643 29.3545 80.943 29.3556 80.2393C29.3576 78.9761 29.3524 78.8715 29.179 76.7105C28.9502 73.8585 28.8646 71.8614 28.9342 70.9944C28.9491 70.8082 28.9998 70.21 29.0469 69.665C29.145 68.5301 29.1782 67.5306 29.1337 67.0519C29.0238 65.8695 28.6078 65.1851 27.8106 64.8756C27.6717 64.8216 27.6037 64.8105 27.4023 64.8088C27.1817 64.807 27.1478 64.8131 27.0155 64.8778C26.7451 65.0102 26.5149 65.2984 26.374 65.6815C26.2395 66.0469 26.1998 66.2864 26.1874 66.809C26.1697 67.5514 26.2501 68.2359 26.4859 69.3508C26.5197 69.5103 26.5783 69.7877 26.6163 69.9671C26.9883 71.7272 27.0845 72.3415 27.2934 74.2935C27.6101 77.2526 27.6681 78.6093 27.5728 80.8315C27.5506 81.35 27.5263 82.2092 27.5189 82.7409C27.5067 83.616 27.5017 83.7074 27.4659 83.704C26.9409 83.6544 25.7475 83.4955 24.922 83.3651L24.5204 83.3017L24.4295 82.7434C24.3486 82.2468 24.1732 81.3337 23.9972 80.4931C23.941 80.2251 23.8942 79.7971 23.7048 77.8224C23.4355 75.0151 23.2531 73.1481 23.1594 72.2391C22.9685 70.388 22.8217 69.0645 22.6998 68.094C22.6557 67.7435 22.6453 67.4878 22.629 66.3537C22.6085 64.9353 22.5943 64.7451 22.4741 64.2751C22.3963 63.9709 22.3395 63.8224 22.1988 63.5546C21.9415 63.0651 21.6063 62.8572 21.303 62.9991C20.9651 63.1572 20.6531 63.794 20.5363 64.5637C20.5045 64.7735 20.4986 64.9406 20.5081 65.3734C20.5254 66.1647 20.6118 66.732 20.9247 68.106C20.9596 68.2589 21.0091 68.4765 21.0348 68.5894C21.137 69.0382 21.2506 69.5795 21.2861 69.7876C21.4303 70.6329 21.641 72.7199 21.8068 74.9461C21.916 76.4134 22.0782 78.0661 22.2076 79.0309C22.3735 80.2677 22.4941 80.9283 22.9068 82.8618C22.9238 82.9415 22.9352 83.0097 22.932 83.0131C22.9204 83.0259 21.6984 82.7763 20.7635 82.5702C20.4356 82.498 20.1625 82.4388 20.1567 82.4388C20.1509 82.4388 20.1387 82.3273 20.1296 82.1911C20.0543 81.0578 19.8994 79.9519 19.484 77.5807C19.4381 77.3188 19.4178 77.2033 19.2964 76.5172C19.1494 75.6862 19.0655 75.1908 18.9445 74.4386C18.7607 73.2959 18.657 72.7407 18.3033 71.0064C17.8756 68.9097 17.7039 67.7948 17.6367 66.68C17.6117 66.2647 17.5084 65.2193 17.4551 64.8431C17.1656 62.7982 16.605 61.6631 15.7701 61.4316C15.5856 61.3805 15.2591 61.3719 15.1336 61.415C14.8012 61.5291 14.6744 61.9076 14.7583 62.5363C14.8528 63.2455 15.1239 64.0671 15.7824 65.6407C15.902 65.9265 16.029 66.2365 16.0645 66.3296C16.1 66.4226 16.1398 66.5243 16.1528 66.5556C16.1659 66.5869 16.2953 67.1144 16.4405 67.7278C16.7042 68.8421 16.7563 69.0683 16.8645 69.5683C16.8961 69.7146 16.9556 69.9857 16.9966 70.171C17.3474 71.7542 17.5893 73.2588 17.7351 74.7649C17.8368 75.8149 18.077 77.666 18.2557 78.7766C18.4777 80.1565 18.7064 82.0186 18.6596 82.0654C18.624 82.101 15.9455 81.344 15.877 81.279C15.8658 81.2684 15.8313 81.0111 15.8003 80.7072C15.7292 80.0094 15.622 79.2442 15.5096 78.632C15.4901 78.5257 15.4357 78.194 15.3887 77.8949C15.3418 77.5958 15.1682 76.5353 15.0029 75.5383C14.8377 74.5413 14.6474 73.3068 14.5802 72.795C14.0806 68.9918 13.8279 67.7427 13.1151 65.5528C12.6561 64.1428 12.4179 63.5502 12.1332 63.1102C11.9161 62.7746 11.6026 62.4931 11.3131 62.3739C11.2149 62.3335 11.1325 62.3204 10.9667 62.3191C10.7789 62.3176 10.7302 62.3262 10.6105 62.3823C10.1646 62.5913 9.95449 63.1398 10.0707 63.7917C10.14 64.1807 10.4475 64.963 11.1536 66.5471C11.8783 68.173 12.1767 69.0131 12.3812 70.0034C12.4353 70.2655 12.647 71.4724 12.7649 72.1908C13.0393 73.864 13.3807 75.9171 13.42 76.1305C13.4457 76.27 13.522 76.6942 13.5896 77.0731C13.7247 77.8303 13.746 77.9429 13.9518 78.9825C14.1406 79.9367 14.2756 80.697 14.2591 80.7135C14.2392 80.7334 13.3944 80.3957 13.1435 80.2676C12.6905 80.0362 12.3605 79.6925 12.1052 79.1859C11.8116 78.6031 11.667 77.9736 11.5095 76.5915C11.4645 76.1967 11.4004 75.736 11.1478 73.9914C10.715 71.0029 10.2138 68.9492 9.44187 67.0006C9.03014 65.9612 8.59143 65.0275 7.87182 63.6588C7.08008 62.1529 6.4106 60.8381 6.27858 60.5298C5.97443 59.8195 4.917 57.0362 4.95129 57.0362C4.9584 57.0362 5.19993 57.2154 5.48804 57.4345C6.9705 58.5615 6.90502 58.5144 6.92416 58.4688C6.93407 58.4453 7.13857 57.5939 7.37863 56.577C7.61866 55.56 7.82109 54.7076 7.82843 54.6828C7.84567 54.6246 7.73453 54.5039 9.07171 56.0332Z" fill="darkred"/>
</svg>
