<svg width="108" height="108" viewBox="0 0 108 108" fill="none" xmlns="http://www.w3.org/2000/svg">
<path fill-rule="evenodd" clip-rule="evenodd" d="M42.0302 1.14341C23.6912 5.32241 7.69819 19.9254 2.16319 37.5454C-0.226813 45.1514 -0.7308 59.1944 1.1262 66.4184C7.3482 90.6264 28.9132 107.693 53.2802 107.693C89.4972 107.693 115.782 72.4284 105.082 38.1934C101.225 25.8514 89.9382 11.8754 79.5452 6.57341C67.6722 0.516409 53.6752 -1.50959 42.0302 1.14341ZM66.8482 5.30541C83.3892 10.2124 96.1222 22.2054 101.3 37.7534C103.71 44.9894 103.953 46.9574 103.558 56.0284C103.059 67.5064 100.806 74.6934 97.7072 74.6934C95.4942 74.6934 94.2702 72.5674 93.4622 67.3194C92.6672 62.1524 90.2862 59.6934 86.0802 59.6934C80.9312 59.6934 78.2822 62.9914 76.8572 71.1744C74.8262 82.8354 71.6342 86.6934 64.0152 86.6934C60.2982 86.6934 59.0372 86.0834 54.9872 82.3214C52.3982 79.9174 49.2572 77.6334 48.0082 77.2474C44.4332 76.1414 40.1322 77.5574 35.6262 81.3224C27.7072 87.9374 24.9322 84.2574 24.8362 67.0164C24.7822 57.2434 24.6752 56.7564 22.1452 54.7664C18.8572 52.1794 17.7102 52.1744 14.4582 54.7324C12.1682 56.5334 11.8322 57.6004 11.5732 63.8774C11.3432 69.4534 10.8902 71.2214 9.4712 72.0884C6.7582 73.7464 5.22219 70.9634 3.79719 61.8044C2.30819 52.2284 3.4442 43.4664 7.4962 33.2794C12.5822 20.4944 25.8702 9.22541 40.6722 5.14341C47.3052 3.31441 60.4112 3.39541 66.8482 5.30541ZM63.2202 9.79141C62.4462 11.0434 72.5362 21.6934 74.4962 21.6934C77.0492 21.6934 75.6782 19.0244 70.4992 13.9094C64.9122 8.39242 64.2992 8.04541 63.2202 9.79141ZM32.7782 16.1954C30.1152 18.9424 29.6462 19.9594 30.5992 20.9124C31.5522 21.8654 32.5912 21.3494 35.4222 18.5174C37.4072 16.5324 38.7232 14.4104 38.3472 13.8014C37.2772 12.0704 36.4192 12.4384 32.7782 16.1954ZM45.8902 20.0604C45.0282 21.0994 45.1092 21.7214 46.2242 22.6464C48.0572 24.1684 49.7802 23.1934 49.7802 20.6344C49.7802 18.3914 47.5492 18.0624 45.8902 20.0604ZM61.0192 27.9434C61.5722 29.6504 68.6842 32.9444 70.3962 32.2874C72.8982 31.3274 71.8512 30.1144 67.0302 28.3864C61.3712 26.3574 60.4832 26.2924 61.0192 27.9434ZM29.2212 30.7894C28.3392 32.2154 31.2582 35.1344 32.6842 34.2524C34.5902 33.0754 33.9632 29.6934 31.8392 29.6934C30.7712 29.6934 29.5932 30.1864 29.2212 30.7894ZM12.7802 35.4774C12.7802 36.7464 23.2292 46.6934 24.5612 46.6934C26.8082 46.6934 25.8132 44.6424 21.1432 39.6504C17.0802 35.3074 12.7802 33.1614 12.7802 35.4774ZM81.4922 39.4774C77.1542 43.8824 75.6242 46.6934 77.5642 46.6934C78.5422 46.6934 88.7802 36.3954 88.7802 35.4124C88.7802 33.4704 85.7372 35.1684 81.4922 39.4774ZM45.9842 37.8214C32.4172 44.5374 32.4282 63.3824 46.0042 70.1554C55.8772 75.0804 69.6112 67.6754 71.4332 56.4414C72.6002 49.2534 67.6932 40.9214 60.3212 37.5734C55.0142 35.1624 51.2242 35.2274 45.9842 37.8214ZM60.7512 41.1784C65.2442 43.5014 67.7802 47.8204 67.7802 53.1474C67.7802 59.0024 65.7532 62.9604 61.1542 66.0854C52.1972 72.1714 38.7802 64.6444 38.7802 53.5324C38.7802 49.7464 42.9282 42.8724 46.1822 41.2674C50.1432 39.3134 57.0622 39.2704 60.7512 41.1784ZM91.8412 48.6554C89.9312 49.8364 91.0062 53.1934 93.2942 53.1934C94.5562 53.1934 95.3902 52.4204 95.5832 51.0704C95.9132 48.7554 93.8422 47.4194 91.8412 48.6554ZM20.1972 57.5584C20.4912 58.0344 20.9202 63.1884 21.1512 69.0124C21.7072 83.0394 23.4982 87.0624 29.3762 87.4934C32.8342 87.7464 34.1322 87.2414 37.7202 84.2434C43.4602 79.4474 47.2002 79.4574 51.8342 84.2784C53.7292 86.2504 56.5922 88.5504 58.1962 89.3904C61.8782 91.3174 69.0202 90.6304 72.6442 88.0014C75.9382 85.6124 79.4572 78.5524 80.1872 72.8694C81.0182 66.3974 82.8642 63.1934 85.7642 63.1934C88.5852 63.1934 90.7422 66.5794 90.7652 71.0424C90.7752 72.9244 91.8292 74.8714 93.8742 76.7804L96.9672 79.6704L93.1852 84.8234C83.1392 98.5084 63.6792 106.356 46.3462 103.712C32.9542 101.669 18.4102 92.4744 11.6022 81.7474C8.43818 76.7634 8.17719 75.6934 10.1252 75.6934C13.0252 75.6934 14.8392 72.0174 15.1832 65.4414C15.3712 61.8524 15.8342 58.4154 16.2112 57.8044C17.0272 56.4844 19.4412 56.3354 20.1972 57.5584ZM28.7802 67.4984C28.7802 67.9404 30.3712 70.0394 32.3162 72.1624C34.8412 74.9194 36.1592 75.7144 36.9282 74.9454C38.3282 73.5454 33.0162 66.6934 30.5302 66.6934C29.5682 66.6934 28.7802 67.0554 28.7802 67.4984ZM63.1882 76.0714C62.3792 78.1804 63.5152 79.6934 65.9092 79.6934C67.4192 79.6934 67.8402 79.1364 67.6002 77.4534C67.2272 74.8394 64.0442 73.8424 63.1882 76.0714Z" fill="darkred"/>
</svg>
