<svg width="55" height="121" viewBox="0 0 55 121" fill="none" xmlns="http://www.w3.org/2000/svg">
<path fill-rule="evenodd" clip-rule="evenodd" d="M15.9093 3.351C10.7453 5.756 5.77533 10.609 2.68533 16.263C1.10733 19.15 0.884317 23.255 0.618317 54.25L0.320312 89H10.3683H20.4163V102.545C20.4163 115.594 20.5063 116.181 22.8713 118.545C25.8213 121.496 28.3863 121.656 31.5553 119.086C33.7143 117.336 33.9253 116.372 34.0263 107.836C34.0863 102.701 34.1983 96.363 34.2763 93.75L34.4163 89H44.4533H54.4913L54.2033 54.75C53.9163 20.552 53.9123 20.493 51.4423 15.657C44.8263 2.704 29.0393 -2.763 15.9093 3.351ZM39.2743 7.716C46.2803 12.047 49.7363 17.66 50.2363 25.521C50.6223 31.58 50.5123 32 48.5353 32C47.3733 32 44.7273 33.531 42.6573 35.402C36.9893 40.522 34.0903 40.573 32.4423 35.58C31.0463 31.35 29.2033 29.75 25.7233 29.75C22.0983 29.75 19.4163 33.278 19.4163 38.046C19.4163 45.455 16.1603 49.601 12.9013 46.342C11.7243 45.165 11.4893 43.695 11.9683 40.499C12.7773 35.105 11.3163 32.29 7.14432 31.209C3.19532 30.186 2.81733 28.574 4.87033 21.509C9.27033 6.373 26.1543 -0.395997 39.2743 7.716ZM22.4163 12.5C22.4163 14.665 22.8203 15.082 24.6663 14.82C26.1433 14.61 26.9163 13.813 26.9163 12.5C26.9163 11.187 26.1433 10.39 24.6663 10.18C22.8203 9.91799 22.4163 10.335 22.4163 12.5ZM13.4523 20.456C11.9533 22.263 12.9163 24 15.4163 24C17.7173 24 18.6253 22.708 17.8123 20.59C17.0503 18.604 15.0413 18.542 13.4523 20.456ZM34.1173 19.632C33.7323 20.018 33.4163 21.19 33.4163 22.236C33.4163 23.638 34.0093 24.055 35.6663 23.82C37.1373 23.611 37.9163 22.812 37.9163 21.514C37.9163 19.53 35.4443 18.306 34.1173 19.632ZM29.3543 37.356C32.3783 44.41 37.0553 44.938 43.9163 39C46.4583 36.8 48.9603 35 49.4773 35C50.3783 35 50.5663 40.209 50.7933 71.5L50.8943 85.5L27.1553 85.768L3.41632 86.036V60.685C3.41632 46.741 3.66733 35.082 3.97433 34.775C4.28133 34.469 5.40633 34.446 6.47433 34.725C8.11933 35.156 8.41632 36.133 8.41632 41.117C8.41632 47.95 10.5543 51 15.3433 51C19.4903 51 22.4163 46.987 22.4163 41.299C22.4163 32.444 26.3023 30.235 29.3543 37.356ZM34.3073 49.25C34.1503 51.047 34.1433 59.153 34.2893 69.25C34.3913 76.305 34.7073 78 35.9163 78C37.1833 78 37.4163 75.667 37.4163 63C37.4163 50.333 37.1833 48 35.9163 48C35.0913 48 34.3673 48.563 34.3073 49.25ZM16.9533 65.401C16.1823 74.654 16.7383 78 19.0473 78C20.2993 78 20.4923 76.333 20.2303 67.831C19.8273 54.782 17.9533 53.392 16.9533 65.401ZM30.1943 102.75L29.9163 116.5H27.4163H24.9163L24.6383 102.75L24.3603 89H27.4163H30.4724L30.1943 102.75Z" fill="darkred"/>
</svg>
