<svg width="122" height="91" viewBox="0 0 122 91" fill="none" xmlns="http://www.w3.org/2000/svg">
<path fill-rule="evenodd" clip-rule="evenodd" d="M26.4027 1.4976C7.76575 5.2036 -2.67328 15.1276 0.593724 26.0326C1.37472 28.6406 1.47174 30.5286 0.862736 31.2826C0.339736 31.9296 -0.0212587 36.7346 0.0617413 41.9596C0.234741 53.0196 1.71874 56.4736 8.53174 61.6696C13.5527 65.4996 20.6917 67.8416 29.7897 68.6426L36.3897 69.2246L38.0967 73.9716C40.6237 80.9996 46.1427 85.2116 57.1897 88.5446C65.9887 91.1986 92.7418 91.1566 101.114 88.4746C107.765 86.3436 115.119 81.7266 117.892 77.9386C120.05 74.9916 121.522 66.7586 120.659 62.4596C120.327 60.8096 120.392 58.5016 120.802 57.3306C121.273 55.9886 121.004 54.4256 120.075 53.0986C118.978 51.5326 118.868 50.4946 119.645 49.0426C122.178 44.3116 120.321 36.7366 115.535 32.2726C111.621 28.6216 100.53 24.0286 92.5717 22.7626L85.0517 21.5666L83.2747 17.2716C77.8257 4.09562 50.8947 -3.3734 26.4027 1.4976ZM57.3467 5.10762C65.6617 6.51662 75.5137 11.5556 78.4277 15.8916C81.3077 20.1736 80.9967 21.1596 76.6427 21.5556C65.1657 22.6016 61.5667 23.2066 56.0807 25.0146C47.9387 27.6986 41.0857 32.1746 38.5577 36.4586C36.2127 40.4336 35.1047 40.6176 26.1807 38.5126C17.3327 36.4256 11.3867 33.5896 7.31073 29.5136C0.643734 22.8466 2.92372 15.3956 13.3567 9.75462C24.4857 3.73862 39.7457 2.12662 57.3467 5.10762ZM93.0027 26.3926C105.876 28.8556 116.085 35.2176 117.266 41.5136C119.774 54.8806 91.2357 65.4386 65.6897 60.5936C46.9227 57.0336 37.0137 48.4006 41.3087 39.3506C46.4597 28.4946 71.3627 22.2516 93.0027 26.3926ZM9.01075 35.5316C13.7497 38.7526 22.4977 41.8016 29.2827 42.5996C35.5287 43.3336 36.2007 43.7186 37.0097 47.0316C37.6297 49.5696 37.5587 49.6056 31.5167 49.7716C26.9337 49.8976 24.5847 49.4396 22.1737 47.9496C20.4027 46.8556 17.5447 45.9596 15.8217 45.9596C14.0837 45.9596 12.0147 45.1806 11.1727 44.2096C4.22373 36.1946 2.29274 32.9596 4.45774 32.9596C4.87974 32.9596 6.92875 34.1166 9.01075 35.5316ZM8.93973 47.1876C9.90173 48.1626 11.9447 48.9596 13.4787 48.9596C15.0117 48.9596 18.0497 49.9456 20.2287 51.1516C22.9967 52.6826 25.9737 53.3606 30.1117 53.4016C35.7327 53.4566 36.0707 53.6016 36.7897 56.2646C37.2057 57.8076 37.2877 60.6606 36.9717 62.6066L36.3987 66.1426L31.7937 65.5206C11.4487 62.7706 3.58873 56.9206 3.74173 44.6446L3.79474 40.4596L5.49173 42.9376C6.42573 44.3006 7.97773 46.2136 8.93973 47.1876ZM56.6897 62.1276C64.4137 64.6196 84.1947 65.7276 92.6897 64.1446C99.8087 62.8176 108.607 59.5056 113.086 56.4656C117.444 53.5086 118.949 55.0026 115.429 58.7906C114.065 60.2586 112.164 62.6976 111.204 64.2096C110.032 66.0576 108.595 66.9666 106.825 66.9816C105.376 66.9936 102.165 67.9856 99.6898 69.1856C92.1798 72.8276 64.7167 73.1726 59.4037 69.6916C57.9197 68.7186 54.6547 67.6426 52.1497 67.2986C48.5927 66.8116 47.2957 66.1026 46.2367 64.0666C45.4907 62.6326 43.7447 60.3996 42.3567 59.1036C38.0217 55.0536 40.1677 53.6726 45.5187 57.0676C48.0877 58.6976 53.1147 60.9746 56.6897 62.1276ZM43.2987 65.8746C45.2567 69.1896 48.4957 70.9596 52.6017 70.9596C54.1517 70.9596 56.4947 71.8046 57.8077 72.8376C63.0187 76.9366 94.0677 76.9406 99.8437 72.8426C101.304 71.8066 104.161 70.9596 106.193 70.9596C109.037 70.9596 110.556 70.2446 112.789 67.8536C114.384 66.1456 115.69 64.3456 115.69 63.8536C115.69 63.3616 116.14 62.9596 116.69 62.9596C117.966 62.9596 117.976 67.4766 116.71 71.8906C115.587 75.8056 111.525 80.4406 107.272 82.6616C102.956 84.9146 87.1367 87.9346 79.6897 87.9266C57.8797 87.9046 43.7077 81.8926 40.8037 71.4316C38.5807 63.4246 39.9927 60.2786 43.2987 65.8746Z" fill="darkred"/>
</svg>
