<svg width="66" height="120" viewBox="0 0 66 120" fill="none" xmlns="http://www.w3.org/2000/svg">
<path fill-rule="evenodd" clip-rule="evenodd" d="M21.9054 1.53927C-0.64756 9.59827 -7.47156 39.0923 9.42444 55.4893C13.1154 59.0703 19.3694 62.8392 23.8234 64.1652C25.4294 64.6432 25.5734 66.7383 25.5734 89.6073C25.5734 112.336 25.7354 114.728 27.4174 116.805C29.9244 119.901 35.2224 119.901 37.7294 116.805C39.4114 114.728 39.5734 112.336 39.5734 89.6073C39.5734 66.7503 39.7184 64.6403 41.3234 64.1333C50.9464 61.0903 58.2604 54.7843 62.3924 45.9693C66.2534 37.7323 66.2114 26.6183 62.2904 18.6033C59.0454 11.9703 52.2994 5.40225 45.7494 2.49825C39.1804 -0.414747 28.5684 -0.840732 21.9054 1.53927ZM46.9594 7.12926C63.6724 16.9243 66.6574 39.5993 53.0274 53.2283C48.1064 58.1503 41.5034 61.0922 37.2744 60.2472C26.0644 58.0092 18.4954 52.6403 15.1204 44.5313C11.1474 34.9853 15.5404 22.9833 24.7734 18.1603C28.2834 16.3263 35.9094 16.3542 39.5044 18.2132C47.9954 22.6042 50.3414 32.5273 44.4694 39.2143C41.7914 42.2643 40.7574 42.7493 36.9244 42.7493C29.2374 42.7493 25.0214 35.8373 29.1304 29.9723C31.0034 27.2973 35.6794 26.9982 38.0794 29.3982C39.6614 30.9792 39.6614 32.1583 38.0794 35.9993C37.2334 38.0553 39.4904 38.4322 41.3734 36.5492C43.7254 34.1972 42.7894 29.1092 39.4964 26.3382C35.5764 23.0402 31.5814 23.0303 27.6844 26.3093C21.7644 31.2913 22.8254 40.4933 29.8104 44.7523C41.2334 51.7173 55.0714 38.8783 50.6334 25.4323C48.5014 18.9703 39.4054 12.7602 32.0734 12.7602C27.6844 12.7602 22.2254 15.0682 18.3424 18.5662C7.49344 28.3372 7.60744 44.9913 18.5964 55.6553C23.4794 60.3943 22.8384 60.9183 16.9574 56.9953C12.3294 53.9073 8.75444 49.9213 5.97244 44.7493C3.14444 39.4903 3.32043 25.7083 6.28743 20.1333C11.0754 11.1353 18.3444 5.37127 26.7204 3.93227C33.2794 2.80527 41.9064 4.16826 46.9594 7.12926ZM35.3404 90.2472L35.0734 115.249H32.5734H30.0734L29.8064 90.2073L29.5404 65.1643L32.5734 65.2053L35.6064 65.2453L35.3404 90.2472Z" fill="darkred"/>
</svg>
